<svg xmlns="http://www.w3.org/2000/svg" xmlns:xlink="http://www.w3.org/1999/xlink" viewBox="178 -526 620 458"><defs><clipPath id="clip0"><path d="M 294 -294 L 294 -526 L 786 -526 L 786 -294 Z"/></clipPath><clipPath id="clip1"><path d="M 294 -294 L 294 -526 L 786 -526 L 786 -294 Z"/></clipPath><clipPath id="clip2"><path d="M 280 -280 L 280 -540 L 800 -540 L 800 -280 Z"/></clipPath><clipPath id="clip3"><path d="M 294 -294 L 294 -526 L 786 -526 L 786 -294 Z"/></clipPath><clipPath id="clip4"><path d="M 280 -280 L 280 -540 L 800 -540 L 800 -280 Z"/></clipPath><clipPath id="clip5"><path d="M 294 -294 L 294 -526 L 786 -526 L 786 -294 Z"/></clipPath><clipPath id="clip6"><path d="M 280 -280 L 280 -540 L 800 -540 L 800 -280 Z"/></clipPath><clipPath id="clip7"><path d="M 387.27272727272725 -306.3344 L 381.02272727272725 -316.3344 L 393.52272727272725 -316.3344 Z"/></clipPath><clipPath id="clip8"><path d="M 474.5454545454545 -317.69696 L 468.2954545454545 -327.69696 L 480.7954545454545 -327.69696 Z"/></clipPath><clipPath id="clip9"><path d="M 561.8181818181818 -332.60768 L 555.5681818181818 -342.60768 L 568.0681818181818 -342.60768 Z"/></clipPath><clipPath id="clip10"><path d="M 649.090909090909 -341.05568 L 642.840909090909 -351.05568 L 655.340909090909 -351.05568 Z"/></clipPath><clipPath id="clip11"><path d="M 736.3636363636364 -363.5696 L 730.1136363636364 -373.5696 L 742.6136363636364 -373.5696 Z"/></clipPath><clipPath id="clip12"><path d="M 290 -74 L 290 -200 L 687.072 -200 L 687.072 -74 Z"/></clipPath><clipPath id="clip13"><path d="M 308.0 -80.33333333333334 L 301.75 -90.33333333333334 L 314.25 -90.33333333333334 Z"/></clipPath></defs><g fill="none" stroke="#000" stroke-dasharray="none" stroke-linecap="butt" stroke-linejoin="miter" stroke-width=".5" font-family="Helvetica" font-size="8" font-stretch="normal" font-style="normal" font-weight="normal"><path d="M 300 -300 L 780 -300"/><path d="M 300 -300 L 780 -300"/><path d="M 300.0 -300 L 300.0 -288"/><text x="300" y="-288" fill="#000" stroke="none" font-size="12" font-style="italic" transform="rotate(90,300,-288)">0</text><path d="M 343.6363636363636 -300 L 343.6363636363636 -288"/><text x="343.636" y="-288" fill="#000" stroke="none" font-size="12" font-style="italic" transform="rotate(90,343.636,-288)">200</text><path d="M 387.27272727272725 -300 L 387.27272727272725 -288"/><text x="387.273" y="-288" fill="#000" stroke="none" font-size="12" font-style="italic" transform="rotate(90,387.273,-288)">400</text><path d="M 430.9090909090909 -300 L 430.9090909090909 -288"/><text x="430.909" y="-288" fill="#000" stroke="none" font-size="12" font-style="italic" transform="rotate(90,430.909,-288)">600</text><path d="M 474.5454545454545 -300 L 474.5454545454545 -288"/><text x="474.545" y="-288" fill="#000" stroke="none" font-size="12" font-style="italic" transform="rotate(90,474.545,-288)">800</text><path d="M 518.1818181818182 -300 L 518.1818181818182 -288"/><text x="518.182" y="-288" fill="#000" stroke="none" font-size="12" font-style="italic" transform="rotate(90,518.182,-288)">1000</text><path d="M 561.8181818181818 -300 L 561.8181818181818 -288"/><text x="561.818" y="-288" fill="#000" stroke="none" font-size="12" font-style="italic" transform="rotate(90,561.818,-288)">1200</text><path d="M 605.4545454545455 -300 L 605.4545454545455 -288"/><text x="605.455" y="-288" fill="#000" stroke="none" font-size="12" font-style="italic" transform="rotate(90,605.455,-288)">1400</text><path d="M 649.090909090909 -300 L 649.090909090909 -288"/><text x="649.091" y="-288" fill="#000" stroke="none" font-size="12" font-style="italic" transform="rotate(90,649.091,-288)">1600</text><path d="M 692.7272727272727 -300 L 692.7272727272727 -288"/><text x="692.727" y="-288" fill="#000" stroke="none" font-size="12" font-style="italic" transform="rotate(90,692.727,-288)">1800</text><path d="M 736.3636363636364 -300 L 736.3636363636364 -288"/><text x="736.364" y="-288" fill="#000" stroke="none" font-size="12" font-style="italic" transform="rotate(90,736.364,-288)">2000</text><path d="M 780.0 -300 L 780.0 -288"/><text x="780" y="-288" fill="#000" stroke="none" font-size="12" font-style="italic" transform="rotate(90,780,-288)">2200</text><text x="524.44" y="-220" fill="#000" stroke="none" font-size="16">Size</text><path stroke="#B3B3B3" stroke-dasharray="1 1" stroke-width=".4" d="M 300 -388.0 L 780 -388.0"/><path stroke="#B3B3B3" stroke-dasharray="1 1" stroke-width=".4" d="M 300 -476.0 L 780 -476.0"/><path d="M 300 -300 L 300 -520"/><path d="M 300 -300.0 L 288 -300.0"/><text x="238" y="-294" fill="#000" stroke="none" font-size="12" font-style="italic">0.00e+00</text><path d="M 300 -324.532992 L 288 -324.532992"/><text x="238" y="-318.533" fill="#000" stroke="none" font-size="12" font-style="italic">2.79e+04</text><path d="M 300 -349.065984 L 288 -349.065984"/><text x="238" y="-343.066" fill="#000" stroke="none" font-size="12" font-style="italic">5.58e+04</text><path d="M 300 -373.598976 L 288 -373.598976"/><text x="238" y="-367.599" fill="#000" stroke="none" font-size="12" font-style="italic">8.36e+04</text><path d="M 300 -398.13196800000003 L 288 -398.13196800000003"/><text x="238" y="-392.132" fill="#000" stroke="none" font-size="12" font-style="italic">1.12e+05</text><path d="M 300 -422.66496 L 288 -422.66496"/><text x="238" y="-416.665" fill="#000" stroke="none" font-size="12" font-style="italic">1.39e+05</text><path d="M 300 -447.197952 L 288 -447.197952"/><text x="238" y="-441.198" fill="#000" stroke="none" font-size="12" font-style="italic">1.67e+05</text><path d="M 300 -471.730944 L 288 -471.730944"/><text x="238" y="-465.731" fill="#000" stroke="none" font-size="12" font-style="italic">1.95e+05</text><path d="M 300 -496.26393599999994 L 288 -496.26393599999994"/><text x="238" y="-490.264" fill="#000" stroke="none" font-size="12" font-style="italic">2.23e+05</text><text x="200" y="-354.44" fill="#000" stroke="none" font-size="16" transform="rotate(-90,200,-354.44)">Memory (bytes)</text><g clip-path="url(#clip0)"><g clip-path="url(#clip1)"><path stroke="navy" stroke-width="2" d="M 387.27272727272725 -377.60896 L 474.5454545454545 -383.24096 L 561.8181818181818 -388.87296000000003 L 649.090909090909 -417.03296 L 736.3636363636364 -422.66496"/></g><g clip-path="url(#clip2)"><path stroke-width=".7" d="M 382.27272727272725 -372.60896 L 392.27272727272725 -382.60896"/><path stroke-width=".7" d="M 392.27272727272725 -372.60896 L 382.27272727272725 -382.60896"/><path stroke-width=".7" d="M 469.5454545454545 -378.24096 L 479.5454545454545 -388.24096"/><path stroke-width=".7" d="M 479.5454545454545 -378.24096 L 469.5454545454545 -388.24096"/><path stroke-width=".7" d="M 556.8181818181818 -383.87296000000003 L 566.8181818181818 -393.87296000000003"/><path stroke-width=".7" d="M 566.8181818181818 -383.87296000000003 L 556.8181818181818 -393.87296000000003"/><path stroke-width=".7" d="M 644.090909090909 -412.03296 L 654.090909090909 -422.03296"/><path stroke-width=".7" d="M 654.090909090909 -412.03296 L 644.090909090909 -422.03296"/><path stroke-width=".7" d="M 731.3636363636364 -417.66496 L 741.3636363636364 -427.66496"/><path stroke-width=".7" d="M 741.3636363636364 -417.66496 L 731.3636363636364 -427.66496"/></g><g clip-path="url(#clip3)"><path stroke="navy" stroke-width="2" d="M 387.27272727272725 -326.92096 L 474.5454545454545 -332.55296 L 561.8181818181818 -338.18496 L 649.090909090909 -343.81696 L 736.3636363636364 -349.44896"/></g><g clip-path="url(#clip4)"><path stroke-width=".7" d="M 382.27272727272725 -321.92096 L 392.27272727272725 -331.92096"/><path stroke-width=".7" d="M 392.27272727272725 -321.92096 L 382.27272727272725 -331.92096"/><path stroke-width=".7" d="M 469.5454545454545 -327.55296 L 479.5454545454545 -337.55296"/><path stroke-width=".7" d="M 479.5454545454545 -327.55296 L 469.5454545454545 -337.55296"/><path stroke-width=".7" d="M 556.8181818181818 -333.18496 L 566.8181818181818 -343.18496"/><path stroke-width=".7" d="M 566.8181818181818 -333.18496 L 556.8181818181818 -343.18496"/><path stroke-width=".7" d="M 644.090909090909 -338.81696 L 654.090909090909 -348.81696"/><path stroke-width=".7" d="M 654.090909090909 -338.81696 L 644.090909090909 -348.81696"/><path stroke-width=".7" d="M 731.3636363636364 -344.44896 L 741.3636363636364 -354.44896"/><path stroke-width=".7" d="M 741.3636363636364 -344.44896 L 731.3636363636364 -354.44896"/></g><g clip-path="url(#clip5)"><path stroke="#7E7E7E" stroke-dasharray="1.5 1.5" stroke-width=".4" d="M 387.27272727272725 -311.3344 L 474.5454545454545 -322.69696 L 561.8181818181818 -337.60768 L 649.090909090909 -346.05568 L 736.3636363636364 -368.5696"/></g><g clip-path="url(#clip6)"><g fill="#000" clip-path="url(#clip7)"><path stroke="none" d="M 381.02272727272725 -306.3344 L 381.02272727272725 -316.3344 L 393.52272727272725 -316.3344 L 393.52272727272725 -306.3344 Z"/></g><g><path d="M 387.27272727272725 -306.3344 L 381.02272727272725 -316.3344 L 393.52272727272725 -316.3344 Z"/><g fill="#000" clip-path="url(#clip8)"><path stroke="none" d="M 468.2954545454545 -317.69696 L 468.2954545454545 -327.69696 L 480.7954545454545 -327.69696 L 480.7954545454545 -317.69696 Z"/></g><g><path d="M 474.5454545454545 -317.69696 L 468.2954545454545 -327.69696 L 480.7954545454545 -327.69696 Z"/><g fill="#000" clip-path="url(#clip9)"><path stroke="none" d="M 555.5681818181818 -332.60768 L 555.5681818181818 -342.60768 L 568.0681818181818 -342.60768 L 568.0681818181818 -332.60768 Z"/></g><g><path d="M 561.8181818181818 -332.60768 L 555.5681818181818 -342.60768 L 568.0681818181818 -342.60768 Z"/><g fill="#000" clip-path="url(#clip10)"><path stroke="none" d="M 642.840909090909 -341.05568 L 642.840909090909 -351.05568 L 655.340909090909 -351.05568 L 655.340909090909 -341.05568 Z"/></g><g><path d="M 649.090909090909 -341.05568 L 642.840909090909 -351.05568 L 655.340909090909 -351.05568 Z"/><g fill="#000" clip-path="url(#clip11)"><path stroke="none" d="M 730.1136363636364 -363.5696 L 730.1136363636364 -373.5696 L 742.6136363636364 -373.5696 L 742.6136363636364 -363.5696 Z"/></g><g><path d="M 736.3636363636364 -363.5696 L 730.1136363636364 -373.5696 L 742.6136363636364 -373.5696 Z"/></g></g></g></g></g></g></g><g fill="#FFF" clip-path="url(#clip12)"><path stroke="none" d="M 290 -74 L 290 -200 L 687.072 -200 L 687.072 -74 Z"/></g><path stroke="navy" stroke-width="2" d="M 300 -189.33333333333331 L 316 -189.33333333333331"/><path stroke-width=".7" d="M 303.0 -184.33333333333331 L 313.0 -194.33333333333331"/><path stroke-width=".7" d="M 313.0 -184.33333333333331 L 303.0 -194.33333333333331"/><text x="316" y="-184" fill="#000" stroke="none" font-size="16">cc_hash_mask_exp_nea_lc_1div8_1div2_nsth_</text><text x="316" y="-168" fill="#000" stroke="none" font-size="16">mmap_</text><text x="316" y="-152" fill="#000" stroke="none" font-size="16">cc_hash_mask_exp_nea_lc_1div8_1div2_nsth_set</text><path stroke="navy" stroke-width="2" d="M 300 -137.33333333333334 L 316 -137.33333333333334"/><path stroke-width=".7" d="M 303.0 -132.33333333333334 L 313.0 -142.33333333333334"/><path stroke-width=".7" d="M 313.0 -132.33333333333334 L 303.0 -142.33333333333334"/><text x="316" y="-132" fill="#000" stroke="none" font-size="16">cc_hash_mask_exp_nea_lc_1div8_1div2_nsth_</text><text x="316" y="-116" fill="#000" stroke="none" font-size="16">mmap_</text><text x="316" y="-100" fill="#000" stroke="none" font-size="16">lu_mtf_set</text><path stroke="#7E7E7E" stroke-dasharray="1.5 1.5" stroke-width=".4" d="M 300 -85.33333333333334 L 316 -85.33333333333334"/><g fill="#000" clip-path="url(#clip13)"><path stroke="none" d="M 301.75 -80.33333333333334 L 301.75 -90.33333333333334 L 314.25 -90.33333333333334 L 314.25 -80.33333333333334 Z"/></g><g><path d="M 308.0 -80.33333333333334 L 301.75 -90.33333333333334 L 314.25 -90.33333333333334 Z"/><text x="316" y="-80" fill="#000" stroke="none" font-size="16">n_hash_mmap</text></g></g></svg>