<svg xmlns="http://www.w3.org/2000/svg" xmlns:xlink="http://www.w3.org/1999/xlink" viewBox="178 -544 620 456"><defs><clipPath id="clip0"><path d="M 294 -294 L 294 -526 L 786 -526 L 786 -294 Z"/></clipPath><clipPath id="clip1"><path d="M 294 -294 L 294 -526 L 786 -526 L 786 -294 Z"/></clipPath><clipPath id="clip2"><path d="M 280 -280 L 280 -540 L 800 -540 L 800 -280 Z"/></clipPath><clipPath id="clip3"><path d="M 294 -294 L 294 -526 L 786 -526 L 786 -294 Z"/></clipPath><clipPath id="clip4"><path d="M 280 -280 L 280 -540 L 800 -540 L 800 -280 Z"/></clipPath><clipPath id="clip5"><path d="M 321.8181818181818 -389.9422954140156 L 315.5681818181818 -399.9422954140156 L 328.0681818181818 -399.9422954140156 Z"/></clipPath><clipPath id="clip6"><path d="M 343.6363636363636 -384.9848968538782 L 337.3863636363636 -394.9848968538782 L 349.8863636363636 -394.9848968538782 Z"/></clipPath><clipPath id="clip7"><path d="M 365.45454545454544 -389.3484731732018 L 359.20454545454544 -399.3484731732018 L 371.70454545454544 -399.3484731732018 Z"/></clipPath><clipPath id="clip8"><path d="M 387.27272727272725 -390.4437668332563 L 381.02272727272725 -400.4437668332563 L 393.52272727272725 -400.4437668332563 Z"/></clipPath><clipPath id="clip9"><path d="M 409.0909090909091 -392.29707991164145 L 402.8409090909091 -402.29707991164145 L 415.3409090909091 -402.29707991164145 Z"/></clipPath><clipPath id="clip10"><path d="M 430.9090909090909 -391.01046505654506 L 424.6590909090909 -401.01046505654506 L 437.1590909090909 -401.01046505654506 Z"/></clipPath><clipPath id="clip11"><path d="M 452.72727272727275 -392.49066144147713 L 446.47727272727275 -402.49066144147713 L 458.97727272727275 -402.49066144147713 Z"/></clipPath><clipPath id="clip12"><path d="M 474.5454545454545 -388.6637531831825 L 468.2954545454545 -398.6637531831825 L 480.7954545454545 -398.6637531831825 Z"/></clipPath><clipPath id="clip13"><path d="M 496.3636363636364 -398.719659775581 L 490.1136363636364 -408.719659775581 L 502.6136363636364 -408.719659775581 Z"/></clipPath><clipPath id="clip14"><path d="M 518.1818181818182 -390.3041104334999 L 511.9318181818182 -400.3041104334999 L 524.4318181818182 -400.3041104334999 Z"/></clipPath><clipPath id="clip15"><path d="M 290 -94 L 290 -136 L 422.944 -136 L 422.944 -94 Z"/></clipPath><clipPath id="clip16"><path d="M 308.0 -100.33333333333334 L 301.75 -110.33333333333334 L 314.25 -110.33333333333334 Z"/></clipPath></defs><g fill="none" stroke="#000" stroke-dasharray="none" stroke-linecap="butt" stroke-linejoin="miter" stroke-width=".5" font-family="Helvetica" font-size="8" font-stretch="normal" font-style="normal" font-weight="normal"><path d="M 300 -300 L 780 -300"/><path d="M 300 -300 L 780 -300"/><path d="M 300.0 -300 L 300.0 -288"/><text x="300" y="-288" fill="#000" stroke="none" font-size="12" font-style="italic" transform="rotate(90,300,-288)">0</text><path d="M 343.6363636363636 -300 L 343.6363636363636 -288"/><text x="343.636" y="-288" fill="#000" stroke="none" font-size="12" font-style="italic" transform="rotate(90,343.636,-288)">200</text><path d="M 387.27272727272725 -300 L 387.27272727272725 -288"/><text x="387.273" y="-288" fill="#000" stroke="none" font-size="12" font-style="italic" transform="rotate(90,387.273,-288)">400</text><path d="M 430.9090909090909 -300 L 430.9090909090909 -288"/><text x="430.909" y="-288" fill="#000" stroke="none" font-size="12" font-style="italic" transform="rotate(90,430.909,-288)">600</text><path d="M 474.5454545454545 -300 L 474.5454545454545 -288"/><text x="474.545" y="-288" fill="#000" stroke="none" font-size="12" font-style="italic" transform="rotate(90,474.545,-288)">800</text><path d="M 518.1818181818182 -300 L 518.1818181818182 -288"/><text x="518.182" y="-288" fill="#000" stroke="none" font-size="12" font-style="italic" transform="rotate(90,518.182,-288)">1000</text><path d="M 561.8181818181818 -300 L 561.8181818181818 -288"/><text x="561.818" y="-288" fill="#000" stroke="none" font-size="12" font-style="italic" transform="rotate(90,561.818,-288)">1200</text><path d="M 605.4545454545455 -300 L 605.4545454545455 -288"/><text x="605.455" y="-288" fill="#000" stroke="none" font-size="12" font-style="italic" transform="rotate(90,605.455,-288)">1400</text><path d="M 649.090909090909 -300 L 649.090909090909 -288"/><text x="649.091" y="-288" fill="#000" stroke="none" font-size="12" font-style="italic" transform="rotate(90,649.091,-288)">1600</text><path d="M 692.7272727272727 -300 L 692.7272727272727 -288"/><text x="692.727" y="-288" fill="#000" stroke="none" font-size="12" font-style="italic" transform="rotate(90,692.727,-288)">1800</text><path d="M 736.3636363636364 -300 L 736.3636363636364 -288"/><text x="736.364" y="-288" fill="#000" stroke="none" font-size="12" font-style="italic" transform="rotate(90,736.364,-288)">2000</text><path d="M 780.0 -300 L 780.0 -288"/><text x="780" y="-288" fill="#000" stroke="none" font-size="12" font-style="italic" transform="rotate(90,780,-288)">2200</text><text x="524.44" y="-220" fill="#000" stroke="none" font-size="16">Size</text><path stroke="#B3B3B3" stroke-dasharray="1 1" stroke-width=".4" d="M 300 -461.4524852674607 L 780 -461.4524852674607"/><path d="M 300 -300 L 300 -520"/><path d="M 300 -300.0 L 288 -300.0"/><text x="238" y="-294" fill="#000" stroke="none" font-size="12" font-style="italic">0.00e+00</text><path d="M 300 -344.0 L 288 -344.0"/><text x="238" y="-338" fill="#000" stroke="none" font-size="12" font-style="italic">2.73e-08</text><path d="M 300 -388.0 L 288 -388.0"/><text x="238" y="-382" fill="#000" stroke="none" font-size="12" font-style="italic">5.45e-08</text><path d="M 300 -432.0 L 288 -432.0"/><text x="238" y="-426" fill="#000" stroke="none" font-size="12" font-style="italic">8.18e-08</text><path d="M 300 -476.0 L 288 -476.0"/><text x="238" y="-470" fill="#000" stroke="none" font-size="12" font-style="italic">1.09e-07</text><path d="M 300 -520.0 L 288 -520.0"/><text x="238" y="-514" fill="#000" stroke="none" font-size="12" font-style="italic">1.36e-07</text><text x="200" y="-340.648" fill="#000" stroke="none" font-size="16" transform="rotate(-90,200,-340.648)">Average time (sec.)</text><g clip-path="url(#clip0)"><g clip-path="url(#clip1)"><path stroke="#892AE2" stroke-width="2" d="M 321.8181818181818 -488.41343578227395 L 343.6363636363636 -480.2875321987627 L 365.45454545454544 -476.6790691530349 L 387.27272727272725 -470.56970711051423 L 409.0909090909091 -520.0 L 430.9090909090909 -506.42991861326993 L 452.72727272727275 -508.6950969815724 L 474.5454545454545 -499.3066349632696 L 496.3636363636364 -499.48423269706376 L 518.1818181818182 -497.76960730352334"/></g><g clip-path="url(#clip2)"><path stroke-width="1" d="M 314.67532467532465 -488.41343578227395 L 328.961038961039 -488.41343578227395"/><path stroke-width="1" d="M 321.8181818181818 -481.27057863941684 L 321.8181818181818 -495.5562929251311"/><path stroke-width="1" d="M 336.4935064935065 -480.2875321987627 L 350.7792207792208 -480.2875321987627"/><path stroke-width="1" d="M 343.6363636363636 -473.1446750559055 L 343.6363636363636 -487.43038934161984"/><path stroke-width="1" d="M 358.31168831168833 -476.6790691530349 L 372.5974025974026 -476.6790691530349"/><path stroke-width="1" d="M 365.45454545454544 -469.5362120101778 L 365.45454545454544 -483.82192629589207"/><path stroke-width="1" d="M 380.12987012987014 -470.56970711051423 L 394.4155844155844 -470.56970711051423"/><path stroke-width="1" d="M 387.27272727272725 -463.42684996765706 L 387.27272727272725 -477.7125642533714"/><path stroke-width="1" d="M 401.94805194805195 -520.0 L 416.23376623376623 -520.0"/><path stroke-width="1" d="M 409.0909090909091 -512.8571428571429 L 409.0909090909091 -527.1428571428571"/><path stroke-width="1" d="M 423.76623376623377 -506.42991861326993 L 438.05194805194805 -506.42991861326993"/><path stroke-width="1" d="M 430.9090909090909 -499.2870614704128 L 430.9090909090909 -513.572775756127"/><path stroke-width="1" d="M 445.5844155844156 -508.6950969815724 L 459.87012987012986 -508.6950969815724"/><path stroke-width="1" d="M 452.72727272727275 -501.55223983871525 L 452.72727272727275 -515.8379541244295"/><path stroke-width="1" d="M 467.4025974025974 -499.3066349632696 L 481.68831168831167 -499.3066349632696"/><path stroke-width="1" d="M 474.5454545454545 -492.1637778204124 L 474.5454545454545 -506.44949210612674"/><path stroke-width="1" d="M 489.22077922077926 -499.48423269706376 L 503.5064935064935 -499.48423269706376"/><path stroke-width="1" d="M 496.3636363636364 -492.3413755542066 L 496.3636363636364 -506.6270898399209"/><path stroke-width="1" d="M 511.038961038961 -497.76960730352334 L 525.3246753246754 -497.76960730352334"/><path stroke-width="1" d="M 518.1818181818182 -490.62675016066623 L 518.1818181818182 -504.91246444638045"/></g><g clip-path="url(#clip3)"><path stroke="#7E7E7E" stroke-dasharray="1.5 1.5" stroke-width=".4" d="M 321.8181818181818 -394.9422954140156 L 343.6363636363636 -389.9848968538782 L 365.45454545454544 -394.3484731732018 L 387.27272727272725 -395.4437668332563 L 409.0909090909091 -397.29707991164145 L 430.9090909090909 -396.01046505654506 L 452.72727272727275 -397.49066144147713 L 474.5454545454545 -393.6637531831825 L 496.3636363636364 -403.719659775581 L 518.1818181818182 -395.3041104334999"/></g><g clip-path="url(#clip4)"><g fill="#000" clip-path="url(#clip5)"><path stroke="none" d="M 315.5681818181818 -389.9422954140156 L 315.5681818181818 -399.9422954140156 L 328.0681818181818 -399.9422954140156 L 328.0681818181818 -389.9422954140156 Z"/></g><g><path d="M 321.8181818181818 -389.9422954140156 L 315.5681818181818 -399.9422954140156 L 328.0681818181818 -399.9422954140156 Z"/><g fill="#000" clip-path="url(#clip6)"><path stroke="none" d="M 337.3863636363636 -384.9848968538782 L 337.3863636363636 -394.9848968538782 L 349.8863636363636 -394.9848968538782 L 349.8863636363636 -384.9848968538782 Z"/></g><g><path d="M 343.6363636363636 -384.9848968538782 L 337.3863636363636 -394.9848968538782 L 349.8863636363636 -394.9848968538782 Z"/><g fill="#000" clip-path="url(#clip7)"><path stroke="none" d="M 359.20454545454544 -389.3484731732018 L 359.20454545454544 -399.3484731732018 L 371.70454545454544 -399.3484731732018 L 371.70454545454544 -389.3484731732018 Z"/></g><g><path d="M 365.45454545454544 -389.3484731732018 L 359.20454545454544 -399.3484731732018 L 371.70454545454544 -399.3484731732018 Z"/><g fill="#000" clip-path="url(#clip8)"><path stroke="none" d="M 381.02272727272725 -390.4437668332563 L 381.02272727272725 -400.4437668332563 L 393.52272727272725 -400.4437668332563 L 393.52272727272725 -390.4437668332563 Z"/></g><g><path d="M 387.27272727272725 -390.4437668332563 L 381.02272727272725 -400.4437668332563 L 393.52272727272725 -400.4437668332563 Z"/><g fill="#000" clip-path="url(#clip9)"><path stroke="none" d="M 402.8409090909091 -392.29707991164145 L 402.8409090909091 -402.29707991164145 L 415.3409090909091 -402.29707991164145 L 415.3409090909091 -392.29707991164145 Z"/></g><g><path d="M 409.0909090909091 -392.29707991164145 L 402.8409090909091 -402.29707991164145 L 415.3409090909091 -402.29707991164145 Z"/><g fill="#000" clip-path="url(#clip10)"><path stroke="none" d="M 424.6590909090909 -391.01046505654506 L 424.6590909090909 -401.01046505654506 L 437.1590909090909 -401.01046505654506 L 437.1590909090909 -391.01046505654506 Z"/></g><g><path d="M 430.9090909090909 -391.01046505654506 L 424.6590909090909 -401.01046505654506 L 437.1590909090909 -401.01046505654506 Z"/><g fill="#000" clip-path="url(#clip11)"><path stroke="none" d="M 446.47727272727275 -392.49066144147713 L 446.47727272727275 -402.49066144147713 L 458.97727272727275 -402.49066144147713 L 458.97727272727275 -392.49066144147713 Z"/></g><g><path d="M 452.72727272727275 -392.49066144147713 L 446.47727272727275 -402.49066144147713 L 458.97727272727275 -402.49066144147713 Z"/><g fill="#000" clip-path="url(#clip12)"><path stroke="none" d="M 468.2954545454545 -388.6637531831825 L 468.2954545454545 -398.6637531831825 L 480.7954545454545 -398.6637531831825 L 480.7954545454545 -388.6637531831825 Z"/></g><g><path d="M 474.5454545454545 -388.6637531831825 L 468.2954545454545 -398.6637531831825 L 480.7954545454545 -398.6637531831825 Z"/><g fill="#000" clip-path="url(#clip13)"><path stroke="none" d="M 490.1136363636364 -398.719659775581 L 490.1136363636364 -408.719659775581 L 502.6136363636364 -408.719659775581 L 502.6136363636364 -398.719659775581 Z"/></g><g><path d="M 496.3636363636364 -398.719659775581 L 490.1136363636364 -408.719659775581 L 502.6136363636364 -408.719659775581 Z"/><g fill="#000" clip-path="url(#clip14)"><path stroke="none" d="M 511.9318181818182 -390.3041104334999 L 511.9318181818182 -400.3041104334999 L 524.4318181818182 -400.3041104334999 L 524.4318181818182 -390.3041104334999 Z"/></g><g><path d="M 518.1818181818182 -390.3041104334999 L 511.9318181818182 -400.3041104334999 L 524.4318181818182 -400.3041104334999 Z"/></g></g></g></g></g></g></g></g></g></g></g></g><g fill="#FFF" clip-path="url(#clip15)"><path stroke="none" d="M 290 -94 L 290 -136 L 422.944 -136 L 422.944 -94 Z"/></g><path stroke="#892AE2" stroke-width="2" d="M 300 -125.33333333333334 L 316 -125.33333333333334"/><path stroke-width="1" d="M 300.85714285714283 -125.33333333333334 L 315.14285714285717 -125.33333333333334"/><path stroke-width="1" d="M 308.0 -118.1904761904762 L 308.0 -132.47619047619048"/><text x="316" y="-120" fill="#000" stroke="none" font-size="16">pairing_heap</text><path stroke="#7E7E7E" stroke-dasharray="1.5 1.5" stroke-width=".4" d="M 300 -105.33333333333334 L 316 -105.33333333333334"/><g fill="#000" clip-path="url(#clip16)"><path stroke="none" d="M 301.75 -100.33333333333334 L 301.75 -110.33333333333334 L 314.25 -110.33333333333334 L 314.25 -100.33333333333334 Z"/></g><g><path d="M 308.0 -100.33333333333334 L 301.75 -110.33333333333334 L 314.25 -110.33333333333334 Z"/><text x="316" y="-100" fill="#000" stroke="none" font-size="16">thin_heap</text></g></g></svg>